<?xml version="1.0" encoding="iso-8859-1"?>
<!-- Uploaded to: SVG Repo, www.svgrepo.com, Generator: SVG Repo Mixer Tools -->
<svg height="800px" width="800px" version="1.1" id="Capa_1" xmlns="http://www.w3.org/2000/svg" xmlns:xlink="http://www.w3.org/1999/xlink" 
	 viewBox="0 0 369.445 369.445" xml:space="preserve">
<g>
	<g>
		<path style="fill:#010002;" d="M230.816,115.023V72.635h-86.675l0.066,40.957C75.099,130.949,23.026,191.429,18.169,264.637H0
			v32.173h369.445v-32.173h-17.793C346.92,193.291,297.317,134.046,230.816,115.023z M167.478,91.239h40.068v18.897
			c-7.411-1.008-14.953-1.575-22.638-1.575c-5.883,0-11.695,0.316-17.429,0.913C167.478,109.474,167.478,91.239,167.478,91.239z
			 M154.59,135.09c9.78-2.106,19.917-3.252,30.318-3.252c10.4,0,20.538,1.146,30.318,3.252
			c61.166,13.175,108.03,65.301,113.156,129.051H41.428C46.559,200.391,93.417,148.265,154.59,135.09z"/>
		<path style="fill:#010002;" d="M293.14,210.977c-11.719-26.045-34.471-47.198-67.64-62.867c-3.341-1.575-6.82-2.375-10.329-2.375
			c-11.051,0-21.266,8.383-23.76,19.506c-2.232,9.959,2.458,19.291,11.958,23.778c25.496,12.047,40.527,25.556,48.731,43.803
			c3.586,7.972,10.603,12.727,18.778,12.733c7.918,0,16.003-4.577,20.574-11.647C295.951,226.95,296.565,218.596,293.14,210.977z
			 M276.797,224.42c-1.563,2.411-4.159,3.676-5.919,3.676c-0.621,0-1.766,0-2.858-2.434c-12.859-28.593-37.323-43.039-57.198-52.431
			c-2.184-1.032-2.828-2.16-2.375-4.171c0.632-2.834,3.491-5.871,6.725-5.871c0.913,0,1.88,0.239,2.876,0.71
			c29.303,13.843,49.209,32.09,59.173,54.239C278.223,220.368,278.092,222.427,276.797,224.42z"/>
	</g>
</g>
</svg>